<?xml version="1.0" encoding="UTF-8"?>
<svg id="Capa_2" data-name="Capa 2" xmlns="http://www.w3.org/2000/svg" viewBox="0 0 1924.91 1765.08">
  <defs>
    <style>
      .cls-1 {
        fill: #f59b1a;
      }

      .cls-2 {
        fill: #de3e2c;
      }

      .cls-3 {
        fill: #fef6b8;
      }

      .cls-4 {
        fill: #fab71d;
      }

      .cls-5 {
        fill: #faef7d;
      }

      .cls-6 {
        fill: #e46831;
      }

      .cls-7 {
        fill: #f9d355;
      }

      .cls-8 {
        fill: #e8901b;
      }
    </style>
  </defs>
  <path class="cls-7" d="M261.11,695.21c82.39,209.7,58.28,673.18,95.2,690.88,15.52,7.39,31.3,13.84,47.26,19.37,7.03,51.89,6.51,107.11,45.01,139.52,29.95,25.21,72.68,25.95,110.18,37.17,90.68,27.14,154.38,117.87,247.5,134.84,100.95,18.39,201.11-56.49,302.39-40.02,33.38,5.43,65.2,20.7,99.01,20.84,67.1.28,126.76-58.04,175.95-97.15,56.2-44.68,106.36-60.97,176.5-77.17,58.78-13.57,124.54-40.87,146.9-101.6,11.85-32.19,8.81-66.91,18.36-99.82,10.76-37.09,30.42-71.65,57.34-99.4,21.29-21.95,47.36-40.47,61.1-67.79,24.53-48.8,5.21-114.89.72-166.41-5.78-66.37,3.68-121.89,19.61-186.55,15.12-61.36,24.82-130.36-8.09-184.32-24.03-39.4-66.37-63.14-100.65-94.02-34.68-31.24-61.76-70.84-78.29-114.49-17.18-45.37-23.87-96.31-54.32-134.07-23.03-28.56-54.13-44.24-87.93-54.55-38.55-11.77-80.59-16.57-118.11-25.55-38.94-9.32-69.92-28.72-106.51-42.25-46.35-17.14-87.56-1.39-133.95,6.34-1.43.24-2.89.43-4.35.61-48.45-24.38-437.05-55.18-650.44,69.13"/>
  <path class="cls-6" d="M1856.02,617.63c-24.03-39.4-66.37-63.14-100.65-94.02-34.68-31.24-61.76-70.85-78.29-114.49-17.18-45.37-23.87-96.31-54.32-134.07-23.03-28.56-54.13-44.23-87.93-54.55-38.55-11.77-80.59-16.57-118.11-25.55-38.94-9.32-69.92-28.72-106.51-42.25-46.35-17.14-87.56-1.39-133.95,6.34-1.43.24-2.88.44-4.35.61-32.79,4.02-74.86-6-106.71-11.98-74.06-13.89-136.74-54.39-210.35-12.39-25.85,14.75-50.08,33.56-78.84,41.26-69.46,18.59-147.81-31.71-212.69-.72-43.38,20.72-63.88,70.5-99.38,102.92-37.78,34.51-90.02,47.29-135.03,71.63-45,24.33-38.34,70.92-26.13,120.6,7.79,31.7-12.69,55.98-3.82,87.4,14.31,50.7-24.44,99.82-61.51,137.25-37.06,37.44-78.49,82.5-70.62,134.59,3.55,23.49,17.16,44.92,18.34,68.65,2.16,43.6-37.87,84.7-24.96,126.4,8.69,28.07,37.72,43.42,61.81,60.24,57.93,40.43,24.66,106.3,61.36,160.03,22.66,33.17,65.89,46.64,91.09,77.92,18.36,22.79,25,51.84,29.09,82.02,7.03,51.89,6.51,107.11,45.01,139.52,29.95,25.21,72.68,25.95,110.18,37.17,90.68,27.14,154.39,117.88,247.5,134.84,100.95,18.39,201.11-56.49,302.39-40.02,33.37,5.43,65.19,20.7,99.01,20.85,67.1.28,126.77-58.05,175.95-97.15,56.2-44.68,106.36-60.97,176.5-77.17,58.78-13.57,124.54-40.87,146.9-101.6,11.85-32.19,8.81-66.91,18.36-99.82,10.76-37.09,30.42-71.66,57.34-99.4,21.29-21.95,47.37-40.47,61.1-67.79,24.53-48.8,5.21-114.89.72-166.41-5.78-66.36,3.67-121.88,19.6-186.54,15.12-61.36,24.82-130.37-8.09-184.32ZM1644.03,786.79c-37.31,61.67-72.89,134.33-71.18,208.16.99,42.49,16.55,83.08,26.33,124.45,9.78,41.36,13.17,87.39-8.23,124.12-22.73,39.01-68.21,58.62-112.16,68.97-43.95,10.35-90.03,14.25-130.9,33.43-66.47,31.19-112.46,99.76-182.93,120.38-54.93,16.08-113.39-.32-169.04-13.71-41.3-9.94-85.49-18.35-127.79-9.8-20.46,4.13-35.39,13.28-56.49,11.89-17.48-1.15-34.75-5.81-50.85-12.59-68.05-28.69-116.27-95.32-146.15-160.48-6.93-15.1-13.57-30.86-25.33-42.61-35.37-35.34-97.08-18.97-141.66-41.59-35.73-18.13-53.22-55.62-61.46-92.68-8.46-38.09-35.72-68.11-44.82-106.76-8.77-37.27-3.24-79.88,22.86-107.89,17.44-18.71,43.51-30.94,52.36-54.94,10.3-27.91-7.42-57.63-24.21-82.2-12.21-17.87-27.41-40.38-26.31-63.03,1.08-22.4,18.46-39.21,27.44-58.32,11.2-23.85,4-51.69,1.22-77.89-4.47-42.28,3.87-86.52,27.26-122.02,23.39-35.5,62.52-61.26,104.91-64.54,39.66-3.06,79.51,12.85,118.75,6.36,62.02-10.27,104.12-72.63,165.12-87.79,34.79-8.65,71.31-.81,106.29,7.02,29.42,6.59,73.89,25.8,103.52,21.53,29.82-4.3,54.81-35.63,84.77-43.38,42.05-10.88,85.86,11.12,119.04,39.14,33.19,28.02,60.96,62.84,98.01,85.52,40.05,24.52,87.63,32.85,131.49,49.62,75.74,28.95,141.01,84.48,181.73,154.6,7.01,12.07,13.01,24.49,17.82,37.12,18.84,49.44,19.46,102.16-9.44,149.93Z"/>
  <path class="cls-5" d="M1531.24,575.77c-32.58-67.33-99.29-117.01-173.13-128.93-71.53-11.55-145.66,10.43-216.76-3.51-57.42-11.26-107.48-44.79-159.49-71.59-52.01-26.8-112.25-47.58-168.35-30.97-83.31,24.67-132.59,124.13-218.72,135.54-23.59,3.12-47.51-.98-71.29-.3-23.78.69-49.45,7.51-63.52,26.7-18.36,25.04-10.15,60.32,2.16,88.82,12.31,28.51,28.37,58.09,23.26,88.72-6.35,38.1-43.87,65.62-49.05,103.9-5.72,42.3,29.82,80.1,31.61,122.75,1.85,44.26-32.7,83.05-34.64,127.31-2.54,57.88,51.71,103.73,107.16,120.55,55.44,16.82,115.11,14.5,171.09,29.43,51.97,13.86,103.5,48.7,114.19,104.17,4.98,25.81,13.18,33.09,42.06,37.03,27.94,3.81,56.94-2.06,84.22-7.7,49.82-10.3,97.42-24.48,148.53-27.88,46.33-3.07,92.81-.97,139.2-1.53,48.14-.59,90.83-8.56,133.46-31.83,39.8-21.72,75.08-52.58,102.17-88.91,25.81-34.62,45.53-75.23,50.34-118.55,5.14-46.35-12.61-90.59-16.34-136.44-4.69-57.53,16.89-110,33.7-163.24,10.52-33.35,13.52-69.1,8.91-103.79-3.21-24.16-10.12-47.8-20.74-69.76Z"/>
  <path class="cls-2" d="M1856.02,617.63c-24.03-39.4-66.37-63.14-100.65-94.02-34.68-31.24-61.76-70.85-78.29-114.49-17.18-45.37-23.87-96.31-54.32-134.07-23.03-28.56-54.13-44.23-87.93-54.55-38.55-11.77-80.59-16.57-118.11-25.55-38.94-9.32-69.92-28.72-106.51-42.25-46.35-17.14-87.56-1.39-133.95,6.34-1.43.24-2.88.44-4.35.61-48.45-24.38,12.98-14.77-212.45-115.6-17.56-5.32-53.92-17.66-60.41-.77-2.26,5.89,2.02,23.35,6.37,39.42,3.36,12.4,6.77,23.97,7.26,28.75,1.36,13.32-14.29,12.17-34.16,5.77-22.48-7.25-50.37-21.22-65.15-28.56-3.35-1.67-6.03-2.99-7.82-3.82-17.46-8.11-32.98-15.08-46.27-19.82-14.38-5.13-26.14-7.65-34.86-6.15-28.63,4.93-12.62,37.12-23.44,54.22-20.62,32.58-70.5,6.97-96.97-3.78-19.89-8.08-46.03-11.22-63.27-1.67-6.06,3.36-11.03,8.29-14.23,15.13-16.31,34.86,33.5,77.1,14.06,110.31-13.79,23.57-48.39,19-75.13,13.44-38.36-7.99-79.31-11.33-115.89,2.72-36.59,14.04-67.24,49.36-65.28,88.5,2.55,50.9,56.34,91.79,49.13,142.24-4.39,30.7-31.19,53.89-59.9,65.63-28.7,11.74-60.1,14.85-90.08,22.84-59.83,15.94-119.06,60.14-124.68,121.8-3.61,39.56,15.75,78.07,41.37,108.42,25.63,30.35,57.56,54.67,85.74,82.66,3.11,3.09,6.18,6.41,9.14,9.91,19.41,23.02,33.61,53.89,17.03,77.41-9.92,14.07-27.49,19.73-44.11,26.23-14.46,5.66-28.19,11.96-35.52,25.01-7.02,12.48-5.52,27.93.96,40.95,2.22,4.46,5.03,8.64,8.27,12.32,12.74,14.4,30.89,22.68,48.77,29.78,11.89,4.73,24.45,9.49,32.81,19.18,8.36,9.69,10.52,26.09.97,34.62l-1.99,1.56c-21.98,15.2-58.92-25.71-79.64-6.61-7.87,7.25-7.77,20.27-2.69,29.69,5.08,9.42,13.96,16.1,22.57,22.46,13.71,10.13,52.4,28.36,59.74,43.64,8.93,18.59-7.94,12.19-21.29,25.54,198.95,105.73,118.51,95.38,155.43,113.08,15.52,7.39,31.3,13.84,47.26,19.37,7.03,51.89,6.51,107.11,45.01,139.52,29.95,25.21,72.68,25.95,110.18,37.17,90.68,27.14,154.39,117.88,247.5,134.84,100.95,18.39,201.11-56.49,302.39-40.02,33.37,5.43,65.19,20.7,99.01,20.85,67.1.28,126.77-58.05,175.95-97.15,56.2-44.68,106.36-60.97,176.5-77.17,58.78-13.57,124.54-40.87,146.9-101.6,11.85-32.19,8.81-66.91,18.36-99.82,10.76-37.09,30.42-71.66,57.34-99.4,21.29-21.95,47.37-40.47,61.1-67.79,24.53-48.8,5.21-114.89.72-166.41-5.78-66.36,3.67-121.88,19.6-186.54,15.12-61.36,24.82-130.37-8.09-184.32ZM1794.65,1122.85c-10.86,68.09-88.42,100.22-133.48,152.41-55.82,64.66-67.12,168.61-142.79,208.24-37.38,19.58-82.29,17.96-121.99,32.26-42.39,15.27-76.7,47.88-118.82,63.88-68.71,26.09-145.3,4.31-218.76,6.48-57.36,1.69-113.16,18.17-170,26.05-56.83,7.89-118.4,6.12-166.58-25.05-50.78-32.86-79.67-93.85-133.32-121.8-28.5-14.85-62.44-19.39-87.6-39.39-57.79-45.94-39.79-145.55-92.82-196.9-15.47-14.98-35.78-24.37-50.7-39.91-40.22-41.91-34.85-120.55-86.39-147.35-21.1-10.97-37.7-2.45-51.68-24.29-12.38-19.33-15.32-45-12.32-67.32,4.34-32.25,19.91-61.76,35.7-90.22,50.92-91.8,108.79-189.73,96.41-293.97-3.18-26.78-11.02-52.93-12.73-79.84-1.71-26.91,3.78-56.08,23.08-74.92,24.72-24.14,63.64-24.51,94.93-39.13,58.56-27.36,82.98-100.16,138.21-133.73,40.84-24.83,92.46-24.23,139.19-14.23,46.74,10.01,91.4,28.51,138.36,37.35,126.8,23.87,248.6-90.06,376.02-38.23,47.26,19.22,83.86,61.47,133.42,73.56,40.32,9.84,85.05-1.58,122.79,15.69,17.46,7.99,31.75,21.49,45.1,35.3,40.5,41.93,75.52,89.13,104,139.99,12.84,22.94,24.36,46.62,34.45,70.9,17.28,41.6,30.62,85.32,55.01,123.2,28.81,44.74,73.54,82.97,80.6,135.72,8,59.72-35.86,115.61-35.12,175.85.54,43.78,24.72,86.15,17.83,129.39Z"/>
  <path class="cls-7" d="M1336.25,503.79c-109.39-27.9-213.66,22.2-232.89,111.91-19.24,89.7,53.85,185.03,163.25,212.93,109.39,27.9,213.66-22.21,232.89-111.91,19.23-89.7-53.86-185.04-163.25-212.93Z"/>
  <path class="cls-3" d="M1266.6,828.63c-109.39-27.9-182.48-123.23-163.25-212.93,2.65-12.35,6.92-23.94,12.59-34.68l.14-.26,1.9-3.48.03-.06,1.53-2.62.47-.79,1.42-2.28.68-1.07,1.36-2.05.87-1.27,1.3-1.85,1.05-1.44,1.23-1.66,1.29-1.67,1.08-1.38,2.46-3,.27-.32,2.64-3.02.17-.2,1.39-1.52.54-.57,2.28-2.38.79-.8,1.89-1.87,1.15-1.1,1.19-1.12,1.87-1.71,1.09-.96,1.95-1.69.99-.83,1.81-1.49.77-.63,2.36-1.85.83-.64,2.48-1.84.69-.5,2.68-1.9.41-.28,2.6-1.75.51-.33,2.95-1.89.39-.24,3.11-1.89.24-.14,3.29-1.9c-14.36-7.36-28.43-15.6-42.74-22.97-30.61-15.77-66.05-28-99.06-18.22-16.92,5.01-31.46,15.27-45.32,26.83-6.47,17.83-23.07,31.29-44.22,36.68-11.93,8.16-24.65,14.32-39.15,16.24-13.88,1.84-27.96-.58-41.95-.17-13.99.4-29.09,4.42-37.37,15.71-10.81,14.73-5.97,35.49,1.27,52.26.86,1.98,1.74,3.97,2.63,5.97,8.36,7.53,12.62,17.96,10.32,27.8,1.33,6.07,1.77,12.21.74,18.43-3.74,22.42-25.81,38.61-28.86,61.13-3.36,24.89,17.55,47.13,18.59,72.22,1.09,26.04-19.24,48.86-20.38,74.91-1.49,34.06,30.42,61.03,63.05,70.93,32.62,9.89,67.73,8.53,100.67,17.31,30.58,8.15,60.89,28.65,67.19,61.29,2.93,15.18,7.75,19.47,24.74,21.79,16.44,2.24,33.5-1.21,49.55-4.53,29.32-6.06,57.32-14.41,87.39-16.4,27.26-1.81,54.61-.57,81.9-.9,28.33-.34,53.44-5.03,78.53-18.72,23.42-12.78,44.17-30.94,60.11-52.31,15.19-20.37,26.78-44.26,29.61-69.75,3.03-27.27-7.42-53.3-9.61-80.28-.41-5.11-.47-10.14-.25-15.12-44.8,32.63-109.89,44.83-176.91,27.73Z"/>
  <path class="cls-1" d="M878.52,117.2c-21.34-9.37-43.06-18.9-65.15-28.56,14.77,7.35,42.66,21.32,65.15,28.56Z"/>
  <path class="cls-7" d="M991.81,493.29c2.44-33.18-28.56-63.78-69.24-68.34-40.68-4.57-75.64,18.62-78.07,51.8-2.44,33.18,28.56,63.78,69.24,68.34,40.68,4.57,75.64-18.62,78.07-51.8Z"/>
  <path class="cls-4" d="M911.22,450.54c40.68,4.57,71.68,35.17,69.24,68.34l-.29,2.81c3.95-4.76,7.03-10.09,9.04-15.88l.14-.41.29-.88.42-1.4.07-.23.44-1.7.03-.11.41-1.85.03-.18.27-1.57.08-.53.18-1.32.06-.53.17-1.82c2.44-33.18-28.56-63.78-69.24-68.34l-1.89-.19-.29-.02-1.58-.13-.49-.03-1.39-.08-.51-.02-1.3-.05-.84-.02-.99-.02h-.92s-.89,0-.89,0l-.95.02-.88.02-.85.03-.96.04-.86.05-.93.06-.83.07-.94.08-.85.09-.89.09-.86.1-.92.12-.83.12-.85.13-.92.15-.82.14-.87.16-.8.16-.95.19-.72.16-.92.21-.77.18-.86.21-.79.21-.89.24-.68.2-.95.28-.67.21-.9.29-.7.23-.87.3-.67.24-.91.33-.61.24-.9.35-.58.24-1,.42-.39.17-1.08.48-.39.18-1.09.51-.29.14-1.17.58-.14.07-1.26.66-.13.07-1.26.7-.07.04-1.48.87-.5.31-.92.57-.65.42-.78.51-.65.45-.7.49-.74.54-.6.45-.71.55-.6.47-.7.56-.57.47-.72.62-.5.43-.74.67-.44.41-.77.74-.36.35-.77.78-.37.38-.74.79-.33.36-.77.86-.23.27-.8.96-.16.2-.85,1.06-.04.06-.89,1.19h0s-.94,1.36-.94,1.36l-.32.48-.56.86-.4.65-.44.72-.43.75-.35.63-.45.83-.29.55-.46.92-.23.49-.44.96-.2.45-.45,1.07-.08.2c-.84,2.1-1.54,4.26-2.09,6.48l-.5,2.24-.02.07-.27,1.48v.08s-.23,1.51-.23,1.51v.02c13.98-16.85,38.88-26.49,66.43-23.4Z"/>
  <path class="cls-7" d="M573.25,861.2c-45.37,46.86-37.18,131.87,18.29,189.89,55.47,58.01,137.22,67.05,182.6,20.2,45.37-46.86,37.19-131.87-18.29-189.89-55.47-58.01-137.22-67.05-182.59-20.2Z"/>
  <path class="cls-4" d="M640.78,1026.84c-55.47-58.01-63.66-143.03-18.28-189.88l3.97-3.86c-13.74,2.53-26.69,7.66-38.19,15.46l-.45.31-1.52,1.07-1.41,1.03-1.01.77-1.14.89-.78.62-1.81,1.5-.68.59-1.52,1.34-.44.39-1.85,1.74-.55.53-1.87,1.87c-45.37,46.86-37.19,131.87,18.29,189.89l2.59,2.65.72.71,1.9,1.86.97.92,1.69,1.59,1.12,1.02,1.55,1.4,1.13.98,1.64,1.43,1.07.89,1.65,1.37,1.32,1.06,1.43,1.14,1.39,1.07,1.44,1.1,1.36,1.01,1.44,1.06,1.46,1.03,1.42.99,1.39.94,1.51,1.01,1.37.89,1.55.99,1.42.88,1.45.89,1.53.9,1.4.82,1.57.89,1.39.77,1.56.84,1.41.74,1.59.81,1.41.7,1.61.78,1.36.64,1.7.78,1.33.59,1.64.71,1.4.59,1.68.68,1.31.51,1.77.68,1.2.44,1.86.67,1.18.41,1.88.63,1.14.36,1.92.6,1.07.31,2.02.58.9.24,2.22.58.63.16,2.45.59.46.1,2.61.56.3.06,2.76.53.12.02,3.3.55,1.28.18,1.95.27,1.71.2,1.59.18,1.71.16,1.55.13,1.82.12,1.4.08,1.92.08,1.29.04,1.96.03h1.27s1.98-.02,1.98-.02l1.18-.03,2.11-.08,1.01-.05,2.16-.14,1-.08,2.19-.2.86-.09,2.29-.28.76-.1,2.41-.36.51-.09,2.56-.45.39-.08,3.16-.67.27-.06,3.06-.75.28-.07,3.06-.86.2-.06,3.12-.99h.03s2.52-.9,2.52-.9l1.1-.41,1.43-.55,1.22-.5,1.24-.51,1.37-.6,1-.45,1.52-.71.8-.39,1.64-.82.58-.3,1.82-.97.05-.03c6.66-3.67,12.92-8.15,18.67-13.45-42.21,7.78-91.81-9.01-129.38-48.3Z"/>
  <path class="cls-7" d="M993.31,1126.54c-38.88-4.37-72.29,17.8-74.62,49.51-2.33,31.71,27.3,60.96,66.18,65.32,38.88,4.37,72.29-17.8,74.62-49.51,2.33-31.71-27.3-60.96-66.18-65.32Z"/>
  <path class="cls-4" d="M993.31,1126.54l-1.8-.18-.53-.04-1.24-.1-.7-.04-1.1-.07-.68-.03-1.05-.04-.91-.02-.85-.02h-.88s-.86,0-.86,0l-.82.02-.94.02-.78.03-.93.04-.81.05-.88.06-.85.07-.87.07-.76.08-.95.1-.79.1-.81.1-.87.12-.81.12-.86.14-.76.13-.82.15-.86.17-.73.15-.82.18-.89.2-.63.15-.96.24-.62.16-.93.25-.65.18-.84.25-.75.23-.8.25-.68.22-.85.29-.62.22-.88.32-.56.21-.91.36-.55.23-.9.38-.44.19-1.05.47-.21.1-1.19.56-.16.08-1.2.6-.18.09-1.15.61-.21.12-1.12.62-.09.05-1.37.81-.61.38-.81.51-.48.32-.84.55-.72.5-.54.38-.84.61-.44.32-.77.59-.49.38-.74.61-.47.38-.78.67-.35.3-.85.77-.29.27-.8.76-.31.3-.82.83-.2.21-.84.89-.21.22-.82.92-.14.17-1.17,1.41-.47.61-.64.83-.53.74-.53.75-.54.81-.45.69-.55.89-.38.63-.55.96-.33.61-.52.99-.29.57-.52,1.08-.21.47-.53,1.22-.09.22c-1.28,3.11-2.23,6.38-2.82,9.77l-.04.21-.23,1.53-.03.18h0c13.36-16.1,37.16-25.32,63.5-22.36,38.88,4.37,68.51,33.61,66.18,65.32l-.28,2.68c4.36-5.26,7.61-11.25,9.48-17.79l.04-.14.45-1.74h0s.39-1.8.39-1.8l.03-.15.27-1.53.08-.49.16-1.24.07-.54.16-1.72c2.33-31.71-27.3-60.96-66.18-65.32Z"/>
  <path class="cls-4" d="M1472.74,596.25l-1.28-1.86-2.63-3.68c-4.46-6.09-9.32-12.01-14.54-17.7-1.57-1.71-3.17-3.4-4.8-5.07l-3.31-3.31-3.4-3.26c-2.87-2.69-5.82-5.32-8.86-7.88-3.04-2.56-6.17-5.06-9.37-7.49l-1.93-1.45-3.93-2.85-1.99-1.4-4.04-2.75c-1.36-.9-2.73-1.8-4.11-2.67-1.38-.88-2.78-1.75-4.19-2.6l-2.12-1.27c-3.55-2.11-7.17-4.13-10.86-6.08l-2.22-1.16c-4.47-2.29-9.03-4.47-13.69-6.51-1.55-.68-3.12-1.35-4.69-2-11.02-4.57-22.55-8.43-34.52-11.48-1.7-.43-3.39-.85-5.08-1.24l-1.02-.23-4.01-.89-1.77-.36-3.26-.65-1.89-.34-3.15-.56-1.97-.32-3.03-.48-2.08-.29-2.93-.4-2.03-.24-2.93-.34-2.15-.21-2.78-.26-2.24-.18-2.71-.2-2.25-.13-2.61-.14-2.4-.09-2.47-.08-2.49-.04-2.31-.02h-2.52s-2.35.03-2.35.03l-2.48.06-2.26.07-2.55.11-2.22.12-2.53.16-2.19.16-2.52.22-2.15.21-2.55.27-2.09.25-2.59.33-1.96.27-2.65.4-1.94.32-2.62.45-1.82.34-2.76.54-1.65.34-2.79.6-1.59.37-2.89.69-1.37.35-2.99.79-1.27.36-3.09.88-1.07.33-3.16.98-.98.32-3.32,1.11-.45.16-3.72,1.34-.09.03-2.87,1.1-.88.35c-1.95.77-3.88,1.58-5.78,2.41l-.6.27c-1.97.87-3.92,1.77-5.85,2.71l-.38.19c-1.96.96-3.9,1.94-5.8,2.96l-.39.21-2.84,1.55-3.29,1.9-.24.14-3.11,1.89-.39.24-2.95,1.89-.51.33-2.6,1.75-.41.28-2.68,1.9-.69.5-2.48,1.84-.83.64-2.36,1.85-.77.63-1.81,1.49-.99.83-1.95,1.69-1.09.96-1.87,1.71-1.19,1.12-1.15,1.1-1.89,1.87-.79.8-2.28,2.38-.54.57-1.39,1.52-.17.2-2.64,3.02-.27.32-2.46,3-1.08,1.38-1.29,1.67-1.23,1.66-1.05,1.44-1.3,1.85-.87,1.27-1.36,2.05-.68,1.07-1.42,2.28-.47.79-1.53,2.62-.03.06-1.9,3.48-.14.26c-4.49,8.52-8.1,17.58-10.72,27.12,44.56-40.72,116.25-57.63,190.33-38.74,109.4,27.9,182.48,123.23,163.25,212.93-.55,2.56-1.18,5.07-1.87,7.56,7.87-7.19,14.89-15.12,20.93-23.72l.1-.14c1.6-2.29,3.13-4.63,4.59-7.01l.66-1.07,1.01-1.71,1.01-1.76.77-1.38,1.73-3.25.18-.34,1.41-2.86.18-.38,1.43-3.11.46-1.04.82-1.93,1.06-2.64.59-1.56.72-1.97.47-1.32,1.05-3.18.34-1.1.86-2.87.2-.7.93-3.52.22-.91.85-3.7c8.56-39.94-1.18-81.01-24.28-116.73l-2.48-3.74Z"/>
  <path class="cls-7" d="M1067.69,892.01c-8.48,24.14,8.38,53.08,37.66,64.65,29.28,11.57,59.88,1.38,68.36-22.75,8.48-24.14-8.38-53.08-37.65-64.65-29.28-11.57-59.89-1.38-68.37,22.75Z"/>
  <path class="cls-4" d="M1136.06,869.26l-2.65-.99h-.03s-2.54-.84-2.54-.84l-.18-.06-2.44-.69-.26-.07-2.44-.58-.22-.05-2.43-.48-.24-.04-2.39-.37-.28-.04-2.32-.27-.36-.03-2.26-.16-.37-.02-2.25-.07h-.32s-2.29.02-2.29.02h-.24s-2.29.13-2.29.13l-.24.02-2.3.23-.13.02-2.3.33-.19.03-2.27.42-.06.02-1.62.37c-2.42.59-4.76,1.34-7,2.25-1.68.68-3.3,1.44-4.86,2.29l-1.54.88c-2.69,1.61-5.17,3.48-7.4,5.6h0s-1.47,1.48-1.47,1.48l-.5.55-.89,1-.57.7-.73.92-.6.82-.6.87-.58.89-.52.86-.57.98-.42.79-.57,1.1-.33.73-.53,1.19h.02c13.76-9.69,34.18-11.84,54-4.01,29.28,11.57,46.14,40.51,37.66,64.65l-.79,2.03c4.5-3.17,8.28-7.14,11.1-11.83l.05-.09,1.4-2.56.08-.17.5-1.07.18-.4.4-.93.15-.38.49-1.32c8.48-24.14-8.38-53.08-37.66-64.65Z"/>
  <path class="cls-7" d="M1450.42,405.86c18.42,5.39,36.44-2.5,40.24-17.63,3.8-15.13-8.05-31.76-26.48-37.16-18.42-5.39-36.44,2.5-40.24,17.63-3.8,15.13,8.05,31.76,26.48,37.16Z"/>
  <path class="cls-4" d="M1456.88,361.98c18.42,5.39,30.28,22.03,26.48,37.16l-.36,1.27h0s.01,0,.01,0l1.86-1.76.17-.18.54-.59.15-.18.84-1.03.3-.4.36-.51.56-.85.26-.42.39-.68.2-.36.52-1.03.14-.32.41-.96.09-.21.42-1.19.08-.25.36-1.27c3.8-15.13-8.05-31.76-26.48-37.16l-1.71-.46-.56-.13-1.13-.25-.74-.14-.95-.17-.7-.1-.99-.14-.7-.07-.95-.09-.79-.05-.86-.05-.79-.02h-.85s-.76,0-.76,0l-.86.02-.76.05-.83.06-.74.08-.83.1-.73.11-.81.13-.76.14-.74.15-.78.18-.69.18-.8.23-.62.19-.82.27-.6.21-.77.29-.62.25-.74.33-.57.27-.76.38-.51.27-.74.42-.5.3-.71.44-.48.32-.7.49-.43.32-.69.54-.39.32-.67.59-.37.34-.63.61-.35.36-.6.65-.3.36-.58.7-.28.37-.54.75-.22.33-.53.83-.19.32-.5.87-.18.36-.43.89-.14.32-.41.98-.08.22-.38,1.1v.02s0,0,0,0c7.81-6.65,20.1-9.1,32.57-5.45Z"/>
  <path class="cls-7" d="M933.65,238.05c25.4,1.3,46.19-14.4,46.45-35.06.26-20.66-20.12-38.46-45.51-39.76-25.4-1.3-46.19,14.4-46.45,35.06-.26,20.66,20.11,38.46,45.51,39.76Z"/>
  <path class="cls-7" d="M1070.46,197.4c9.95.51,18.09-5.64,18.19-13.73.1-8.09-7.88-15.06-17.82-15.57-9.95-.51-18.09,5.64-18.2,13.73-.1,8.09,7.88,15.06,17.83,15.57Z"/>
  <path class="cls-4" d="M928.52,179.52c25.4,1.3,45.77,19.1,45.51,39.76l-.07,1.74v.02l.2-.29.56-.8.35-.52.81-1.31.1-.17,1.46-2.87.23-.54.34-.83.44-1.2.23-.7.28-.92.16-.57.34-1.45.1-.5.22-1.32.05-.31.17-1.61.03-.44.07-1.69c.26-20.66-20.12-38.46-45.51-39.76l-2.33-.07h-.76s-1.57.02-1.57.02l-.75.04-1.5.08-.96.09-1.28.12-1.01.13-1.18.16-1.1.19-1.05.19-1.04.22-1.1.25-.97.25-1.08.29-1.04.32-.96.3-1.05.37-.93.34-.99.4-.92.38-.97.44-.89.42-.95.48-.84.44-.94.52-.82.48-.88.54-.79.51-.86.59-.73.52-.84.64-.69.55-.81.68-.65.57-.76.7-.61.6-.75.76-.54.58-.72.81-.5.6-.67.84-.46.62-.63.88-.42.64-.58.91-.36.62-.55.99-.3.58-.52,1.07-.24.56-.47,1.13-.2.53-.42,1.2-.14.47-.37,1.28-.11.47-.3,1.34-.06.37-.23,1.46-.03.26-.16,1.61c8.03-10.97,23.11-17.89,40.31-17.01Z"/>
  <path class="cls-4" d="M1068.46,174.47c9.94.51,17.92,7.48,17.82,15.57l-.03.69h0s.01-.01.01-.01l.99-1.58.02-.04.35-.74.07-.15.29-.74.03-.09.26-.86.02-.08.17-.77.04-.21.09-.67.03-.24.05-.89c.1-8.09-7.88-15.06-17.82-15.57l-.92-.03h-.33s-.55,0-.55,0l-.45.02-.45.02-.35.03-.51.05-.45.06-.41.05-.44.08-.42.08-.38.08-.45.1-.38.1-.43.12-.41.13-.36.11-.43.15-.35.13-.41.16-.35.14-.35.16-.4.19-.32.16-.38.2-.34.19-.33.19-.33.2-.32.21-.34.23-.28.2-.34.26-.26.2-.34.28-.23.2-.31.29-.25.24-.28.28-.22.24-.28.31-.2.24-.26.33-.17.22-.26.36-.15.23-.24.38-.13.23-.22.39-.12.24-.2.4-.11.24-.18.42-.09.23-.15.44-.06.21-.14.51-.03.12-.13.56-.04.22-.08.5-.02.15-.06.58c3.14-4.3,9.05-7.01,15.79-6.66Z"/>
  <path class="cls-7" d="M1084.21,1613.1c-15.52,1.46-26.75,12.83-25.08,25.39,1.67,12.56,15.61,21.56,31.13,20.09,15.52-1.46,26.75-12.83,25.08-25.39-1.67-12.56-15.61-21.56-31.13-20.09Z"/>
  <path class="cls-7" d="M1172.16,1648.15c-6.79.64-11.71,5.61-10.97,11.11.73,5.5,6.83,9.43,13.62,8.79,6.79-.64,11.71-5.61,10.98-11.11-.73-5.5-6.83-9.43-13.63-8.79Z"/>
  <path class="cls-4" d="M1180.88,1370.28c-4.9-19.78-28.79-31.69-53.34-26.59-24.55,5.09-40.48,25.26-35.58,45.04,4.9,19.78,28.78,31.69,53.34,26.59,24.56-5.09,40.49-25.26,35.58-45.04Z"/>
  <path class="cls-7" d="M644.98,1401.28c-12.18-10.25-28.49-10.27-36.43-.06-7.94,10.21-4.5,26.8,7.68,37.04,12.18,10.25,28.49,10.27,36.43.06,7.94-10.21,4.5-26.8-7.68-37.04Z"/>
  <path class="cls-7" d="M1445.71,1379.88c-21.91,9.04-33.17,30.56-25.14,48.07,8.02,17.51,32.29,24.38,54.2,15.34,21.91-9.04,33.17-30.56,25.15-48.07-8.02-17.51-32.29-24.38-54.2-15.34Z"/>
  <path class="cls-4" d="M1115.45,1634.39v-.13s0,0,0,0c-3.9,7.37-12.43,12.9-22.95,13.89-15.52,1.46-29.46-7.54-31.13-20.1l-.11-1.07-.34.66h0s-.55,1.27-.55,1.27l-.05.13-.63,1.87-.09.34-.13.52-.16.79-.07.41-.09.61-.05.36-.08.9-.02.3-.02.82v.21s.04.99.04.99l.02.25.11,1.04c1.67,12.56,15.61,21.56,31.13,20.09l1.43-.16.35-.05,1.06-.17.32-.06,1.03-.21.46-.11.89-.21.45-.13.85-.25.55-.18.72-.24.6-.22.65-.25.55-.23.67-.29.54-.25.63-.3.56-.29.57-.3.57-.33.52-.31.56-.35.5-.33.52-.37.48-.35.53-.41.41-.33.55-.46.38-.34.49-.45.39-.37.48-.49.33-.36.47-.52.31-.37.43-.53.31-.4.38-.52.29-.42.36-.55.25-.4.34-.59.2-.38.33-.63.18-.37.3-.67.13-.34.27-.72.11-.32.24-.76.08-.27.21-.81.06-.27.16-.82.04-.27.12-.86.02-.21.07-.91v-.2s.01-.92.01-.92v-.31s-.04-.74-.04-.74Z"/>
  <path class="cls-4" d="M1185.83,1657.41c-1.71,3.22-5.44,5.65-10.04,6.08-6.79.64-12.89-3.3-13.63-8.79l-.05-.47h0s0,.02,0,.02l-.51,1.14-.02.07-.16.51-.03.11-.12.5-.02.09-.09.58v.13s-.04.47-.04.47v.19s0,.41,0,.41v.2s.06.6.06.6c.73,5.5,6.83,9.43,13.63,8.79l1.21-.16h0l1.11-.24.08-.02,1.05-.32.07-.02.97-.38.11-.05.88-.44.12-.06.83-.51.09-.06.77-.57.09-.07.69-.61.1-.09.62-.66.07-.09.55-.71.06-.08.47-.75.06-.1.38-.79.03-.08.29-.83.02-.09.2-.86v-.08s.1-.9.1-.9v-.05s-.01-.94-.01-.94h0Z"/>
  <path class="cls-7" d="M813.98,624.12c-18.42-5.39-36.44,2.5-40.24,17.63-3.8,15.13,8.05,31.76,26.48,37.16,18.42,5.39,36.44-2.5,40.24-17.63,3.8-15.13-8.05-31.77-26.48-37.16Z"/>
  <path class="cls-4" d="M830.22,633.1c-4.4-3.97-9.94-7.13-16.24-8.98l-1.71-.46-.56-.13-1.12-.25-.66-.13-1.05-.19-.57-.08-1.11-.16-.72-.07-.93-.09-.79-.05-.86-.05-.79-.02h-.85s-.72,0-.72,0l-.92.03-.69.04-.89.06-.75.08-.83.1-.73.11-.8.13-.76.14-.74.16-.76.18-.71.18-.78.22-.67.2-.76.25-.66.23-.73.28-.65.27-.7.31-.63.29-.7.35-.56.29-.72.4-.54.32-.67.42-.52.35-.66.46-.48.36-.64.5-.45.37-.63.55-.38.36-.64.62-.32.33-.63.68-.29.35-.6.72-.23.3-.59.81-.19.29-.56.86-.16.28-.53.94-.09.19-.51,1.05-.1.24-.44,1.05-.06.17-.4,1.17c7.81-6.65,20.1-9.1,32.57-5.45,18.42,5.39,30.28,22.03,26.48,37.16l-.36,1.26h0s.18-.14.18-.14l.63-.56.25-.24.85-.85.12-.12.57-.63.03-.04.96-1.18.28-.36.39-.54.55-.83.26-.43.38-.66.22-.39.51-1.02.14-.32.41-.96.09-.21.41-1.16.1-.3.35-1.24.08-.38c2.3-9.84-1.96-20.27-10.32-27.8Z"/>
  <path class="cls-7" d="M1647.51,982.69c-26.9,21.17-28.64,65.97-3.88,100.06,24.76,34.09,66.65,44.56,93.55,23.39,26.91-21.17,28.65-65.97,3.89-100.06-24.76-34.09-66.65-44.56-93.56-23.39Z"/>
  <path class="cls-7" d="M1711.09,914.28c17.45-.9,31.37-19.05,31.1-40.54-.28-21.49-14.65-38.19-32.11-37.29-17.45.9-31.38,19.05-31.09,40.54.28,21.49,14.65,38.19,32.1,37.29Z"/>
  <path class="cls-4" d="M1670.95,1073.61c-24.76-34.09-23.02-78.89,3.89-100.06l2.34-1.73c-7.37.35-14.51,2.12-21.07,5.41l-.04.02-3.49,1.93-.09.06-1.45.92-.44.3-1.15.79-.42.3-1.5,1.14c-26.91,21.17-28.65,65.97-3.89,100.06l1.17,1.58.05.07,1.13,1.45.27.33.95,1.18.24.29.98,1.17.34.39.9,1.02.52.57.71.78.58.61.76.8.44.45.86.86.52.51.79.76.58.55.74.68.64.58.72.64.63.54.76.65.61.51.78.64.62.49.79.61.68.52.7.52.73.53.75.53.66.46.81.55.68.45.7.46.83.53.61.38.86.52.6.35.9.52.6.34.87.48.62.33.88.46.63.32.91.45.57.27.93.43.62.28.93.41.55.23,1.02.42.37.15,1.21.47.19.07,1.33.48.24.08,1.31.44.15.05,1.66.51.95.27.7.19.98.25.7.18.99.23.68.15,1.02.21.64.13,1.07.19.59.1,1.05.16.62.09,1.11.14.51.06,1.21.11.38.03,1.3.09.33.02,1.33.05h.3s1.33.03,1.33.03h.31s1.36-.02,1.36-.02h.17s1.48-.07,1.48-.07h.05s1.88-.14,1.88-.14l.71-.07,1.13-.12.92-.13.92-.13,1.02-.18.8-.15,1.06-.22.73-.16,1.13-.28.62-.16,1.16-.32.59-.18,1.23-.39.38-.13,1.38-.49.13-.05c2.73-1.03,5.38-2.3,7.93-3.82l.05-.03,1.47-.92.08-.05,1.43-.96.07-.04h0c-22.5,1.07-47.12-11.17-63.89-34.25Z"/>
  <path class="cls-4" d="M1728.11,869.5c.28,21.49-13.64,39.65-31.09,40.54l-1.47.03h-.01l.24.14.81.49.32.19,1.21.64.15.08.86.41h.02s1.62.67,1.62.67l.46.17.72.24,1.02.3.63.16.76.18.52.11,1.23.21.42.06,1.11.12.31.03,1.37.06h.33s1.45-.03,1.45-.03c17.45-.9,31.37-19.05,31.1-40.55l-.07-1.97-.06-.8-.08-1.14-.1-.83-.13-1.09-.13-.81-.17-1.06-.17-.87-.2-.96-.22-.93-.21-.86-.26-.92-.25-.86-.28-.84-.3-.88-.31-.83-.33-.85-.34-.81-.36-.81-.38-.81-.38-.76-.44-.83-.36-.67-.48-.83-.4-.65-.51-.79-.41-.61-.56-.78-.42-.57-.6-.76-.42-.52-.64-.75-.44-.49-.66-.7-.46-.46-.7-.67-.47-.43-.72-.63-.49-.39-.77-.6-.47-.34-.82-.57-.49-.32-.82-.51-.52-.3-.85-.47-.49-.25-.91-.43-.48-.21-.93-.39-.49-.18-.99-.34-.39-.11-1.11-.31-.31-.07-1.2-.26-.29-.05-1.23-.2-.28-.03-1.29-.13h-.12s-1.45-.06-1.45-.06c9.69,6.18,16.35,18.53,16.54,33.08Z"/>
  <path class="cls-7" d="M1332.38,1128.44c-12.75,8.07-17.45,22.8-10.49,32.9,6.95,10.1,22.92,11.74,35.66,3.67,12.75-8.07,17.44-22.8,10.49-32.9-6.95-10.1-22.92-11.74-35.67-3.67Z"/>
  <path class="cls-4" d="M1371.21,1141.24l-.03-.36-.07-.7-.05-.38-.11-.71-.06-.29-.17-.77-.08-.28-.21-.75-.1-.29-.27-.76-.06-.15-.36-.86-.02-.04-.46-.94-.02-.03-.53-.92c-.13,8.07-5.07,16.58-13.7,22.05-12.75,8.07-28.72,6.43-35.67-3.67l-.56-.87h0s0,.07,0,.07l.03,1.3v.14s.13,1.33.13,1.33v.06s.22,1.27.22,1.27l.03.17.31,1.24.02.08.44,1.31.04.11.46,1.09.16.34.44.85.21.37.7,1.12c6.95,10.1,22.92,11.74,35.67,3.67l1.14-.76.49-.35.64-.46.39-.3.65-.52.51-.44.5-.42.49-.45.48-.45.5-.5.41-.41.47-.51.41-.46.43-.51.38-.45.44-.57.32-.42.42-.59.29-.42.4-.61.26-.41.38-.65.23-.4.35-.65.22-.42.28-.6.23-.51.25-.58.19-.49.23-.61.17-.48.2-.63.13-.47.17-.64.11-.46.14-.66.08-.44.11-.67.06-.43.07-.68.03-.41.04-.69v-.41s.02-.69.02-.69v-.38s-.05-.72-.05-.72Z"/>
  <path class="cls-8" d="M1181.7,1375.61l-.02-.29-.15-1.54-.02-.13-.27-1.69c-4.93,12.47-17.59,22.83-34.22,26.28-24.55,5.09-48.43-6.81-53.34-26.59l-.36-1.68h0s-.12.32-.12.32l-.32.87-.21.59-.45,1.46-.06.21-.27,1.07v.05s-.4,1.97-.4,1.97l-.09.55-.12.88-.12,1.25-.04.75-.03.9v.64s.02,1.44.02,1.44l.03.52.12,1.34.03.27.24,1.6.08.42.35,1.63c4.91,19.78,28.79,31.69,53.34,26.59l2.26-.52.24-.06,1.95-.53.83-.26,1.28-.41,1.02-.37,1.08-.39.92-.37,1.12-.46.87-.39,1.11-.51.86-.44,1.04-.53.87-.48.97-.55.88-.54.88-.56.88-.59.81-.56.87-.64.76-.58.86-.69.69-.57.82-.72.69-.62.76-.73.63-.63.76-.8.57-.63.72-.82.52-.63.69-.88.47-.62.67-.95.4-.59.61-.95.41-.68.54-.94.35-.65.52-1.03.28-.59.48-1.07.25-.62.42-1.1.2-.58.37-1.15.16-.57.31-1.18.12-.56.25-1.21.08-.52.18-1.27.04-.45.11-1.36.02-.35.04-1.46v-.31s-.06-1.49-.06-1.49Z"/>
  <path class="cls-7" d="M517.73,584.58c12.65.74,24.17-10.82,25.72-25.83,1.55-15.01-7.46-27.78-20.12-28.53-12.65-.75-24.17,10.82-25.72,25.83-1.55,15.01,7.46,27.79,20.11,28.53Z"/>
  <path class="cls-4" d="M507.42,560.11c1.55-15.01,13.06-26.58,25.72-25.83l1.07.1-2.42-1.63h-.02s-1.19-.63-1.19-.63l-.18-.09-1.2-.52-.08-.03-1.35-.46-.1-.03-1.18-.31-.41-.09-.95-.17-.44-.07-1.36-.13c-12.66-.75-24.17,10.82-25.72,25.83l-.11,1.37-.03.67-.03.69v1.36s.03.57.03.57l.03.76.05.58.06.73.07.57.1.74.09.53.13.73.13.59.14.65.16.6.16.61.19.61.18.58.21.59.21.58.22.54.25.59.24.54.26.55.28.55.27.5.32.56.27.45.36.56.28.43.37.52.32.43.39.5.32.38.44.5.31.35.47.49.31.31.51.48.32.28.54.46.33.26.55.42.34.24.59.4.31.2.64.39.32.18.66.35.33.16.68.31.3.13.76.3.22.07.83.28.24.07.85.22.19.04.93.19h.04s1.09.16,1.09.16c-6.49-5.07-10.28-14.21-9.23-24.37Z"/>
  <path class="cls-7" d="M261.75,916.78c-17.45.9-31.37,19.06-31.1,40.56.28,21.5,14.65,38.21,32.1,37.31,17.46-.9,31.37-19.06,31.1-40.56-.27-21.5-14.65-38.21-32.1-37.31Z"/>
  <path class="cls-4" d="M293.75,951.48l-.1-1.33-.07-.62-.15-1.28-.13-.81-.17-1.06-.17-.88-.19-.95-.21-.87-.23-.95-.24-.85-.26-.9-.29-.88-.28-.84-.32-.86-.32-.82-.35-.82-.35-.81-.38-.79-.38-.77-.43-.81-.39-.71-.46-.79-.41-.67-.5-.77-.43-.65-.52-.72-.47-.63-.54-.69-.49-.59-.6-.7-.47-.52-.64-.67-.5-.5-.67-.64-.5-.45-.7-.61-.52-.42-.74-.58-.49-.36-.8-.56-.48-.31-.86-.54-.44-.25-.92-.51-.44-.22-.95-.45-.45-.2-.98-.4-.43-.16-1.03-.36-.42-.12-1.07-.3-.37-.09-1.17-.26-.25-.04-1.27-.2-.26-.03-1.31-.13h-.08s-1.49-.06-1.49-.06c9.69,6.18,16.35,18.53,16.54,33.1.28,21.5-13.64,39.66-31.1,40.56l-1.48.03h.02s.84.53.84.53l.08.04,1.6.87.2.1.83.39.2.09,1.42.57.52.19.68.23,1.07.32.56.14.83.19.5.11,1.24.21.41.05,1.16.12.23.02,1.37.06h.39s1.42-.03,1.42-.03c17.46-.9,31.37-19.06,31.1-40.56l-.07-1.97-.05-.64Z"/>
  <path class="cls-7" d="M561.77,1263.89c-26.86-22.59-62.84-22.65-80.34-.13-17.51,22.52-9.92,59.09,16.94,81.69,26.86,22.59,62.83,22.65,80.34.13,17.51-22.52,9.92-59.09-16.94-81.69Z"/>
  <path class="cls-4" d="M518.63,1332.57c-26.86-22.59-34.45-59.17-16.94-81.69l1.55-1.86c-5.86,1.75-11.26,4.6-15.9,8.55l-.14.12-1.12,1-.09.07-1.16,1.12-.12.13-.95,1-.28.31-.76.86-.3.36-.98,1.21c-17.51,22.52-9.92,59.09,16.94,81.69l2.44,1.97.04.03,2.4,1.78.15.11,2.38,1.63.2.13,2.33,1.45.32.19,2.32,1.32.3.17,2.38,1.23.27.13,2.4,1.12.3.13,2.37.99.36.14,2.36.87.36.13,2.4.77.28.08,2.44.67.29.07,2.45.56.26.05,2.49.46.17.03,2.56.35h.1s1.53.17,1.53.17l.8.06.74.05.86.04.66.03.83.02h.73s.78.01.78.01h.72s.85-.03.85-.03l.66-.02.88-.05.6-.04.97-.08.49-.05,1-.11.44-.05,1.05-.15.38-.06,1.07-.18.38-.07,1.08-.22.3-.07,1.12-.26.27-.07,1.13-.29.23-.07,1.16-.34.19-.06c6.26-1.95,11.97-5.16,16.77-9.64l.02-.02.99-.95.05-.05,1.92-2.05.02-.02c-17.98,5.38-40.34.43-58.54-14.87Z"/>
  <path class="cls-4" d="M625.42,1432.43c-12.18-10.25-15.62-26.83-7.68-37.04l.7-.84h0s-.08.02-.08.02l-1.28.43-.16.06-1.28.54-.05.02-1.21.62-.16.09-1.15.7-.08.05-1.17.85-.12.1-.91.78-.31.29-.72.72-.28.29-.92,1.08c-7.94,10.21-4.49,26.8,7.69,37.04l1.15.93.11.08,1.04.77.42.29.76.52.45.28.74.46.44.25.78.44.45.23.77.39.56.26.65.3.64.27.6.25.64.23.6.21.68.22.57.18.65.18.62.16.62.14.62.13.64.12.61.1.64.09.6.07.64.06.6.04.63.03h.6s.63.01.63.01h.55s.7-.04.7-.04l.49-.04.67-.06.53-.07.64-.09.52-.09.64-.13.48-.11.67-.17.43-.13.68-.21.41-.14.67-.25.39-.16.66-.28.38-.18.66-.33.32-.18.67-.38.32-.21.64-.42.29-.21.63-.47.26-.21.63-.54.19-.18.65-.62.12-.13.68-.73h0c-8.15,2.44-18.29.19-26.54-6.74Z"/>
  <path class="cls-4" d="M1502.43,1405.08l-.04-.41-.13-1.29-.05-.34-.22-1.35-.05-.26-.32-1.42-.04-.14-.44-1.51-.02-.05-.56-1.57c-2.39,12.45-12.33,24.29-27.17,30.41-21.91,9.04-46.18,2.17-54.2-15.34l-.64-1.51h0s0,.03,0,.03l-.19,1.08v.03s-.25,2.09-.25,2.09v.18s-.1,3.02-.1,3.02l.02.48.04.89.1,1.14.1.75.12.78.11.63.28,1.3.13.53.32,1.15.09.32.5,1.44.13.34.62,1.47c8.02,17.51,32.29,24.38,54.2,15.34l2.01-.88.29-.14,1.62-.79.71-.38,1.16-.63.78-.46,1.02-.6.79-.51.95-.62.77-.54.89-.64.72-.55.89-.69.7-.59.81-.69.68-.62.79-.73.64-.63.73-.74.63-.67.67-.75.61-.72.61-.74.57-.73.58-.77.54-.76.52-.76.53-.82.45-.72.49-.85.42-.75.44-.85.37-.75.41-.89.31-.71.38-.95.25-.67.35-1.02.2-.63.31-1.05.16-.61.26-1.08.12-.58.2-1.12.08-.57.14-1.14.05-.54.08-1.17.02-.5.02-1.22-.02-.44-.05-1.26Z"/>
</svg>