<?xml version="1.0" encoding="UTF-8"?>
<svg id="Capa_1" xmlns="http://www.w3.org/2000/svg" version="1.1" viewBox="0 0 2122 2122">
  <!-- Generator: Adobe Illustrator 30.3.0, SVG Export Plug-In . SVG Version: 2.1.3 Build 182)  -->
  <defs>
    <style>
      .st0 {
        fill: #ffd329;
      }

      .st1 {
        fill: #d77a00;
      }

      .st2 {
        fill: #f6a000;
      }

      .st3 {
        fill: #f7a600;
      }

      .st4 {
        fill: #fcbf00;
      }
    </style>
  </defs>
  <path class="st0" d="M1380.96,520.82c-11.3,4.96-23.77,7.77-36.92,7.77-50.47,0-91.39-40.62-91.39-90.72,0-21.15,7.35-40.56,19.58-55.99-49.35-60.02-86.22-99.21-102.37-106.08-28.75-12.23-195.53-34.63-235.58,4.1-.03.02-.04.07-.07.1-35.4,23.34-110.18,143.61-199.57,306.91,36.44,14.14,67.38,39.13,88.87,70.93-.03,0-.05,0-.07,0,11.4,255.55-262.57,262.68-262.57,262.68-192.49,384.37-382.96,807.69-382.96,859.81,0,90.8,1320.92,118.41,1511.33,24.18h0c94.68-26.22,267.19-334.06,267.19-378.91,0-85.33-340.01-592.88-575.48-904.78Z"/>
  <path class="st4" d="M855.65,762.78c0-38.85-11.85-74.93-32.12-104.94-.03,0-.05,0-.07,0,11.4,255.55-262.57,262.68-262.57,262.68,30,19.63,65.91,31.09,104.54,31.09,105.06,0,190.23-84.54,190.23-188.83Z"/>
  <circle class="st4" cx="894.25" cy="996.59" r="58.24" transform="translate(-321.93 436.44) rotate(-23.37)"/>
  <path class="st4" d="M927.1,378.23c0,9.28-7.52,16.81-16.81,16.81s-16.81-7.52-16.81-16.81,7.52-16.81,16.81-16.81,16.81,7.52,16.81,16.81Z"/>
  <circle class="st4" cx="1101.42" cy="1104.52" r="16.81" transform="translate(-165.26 2014.79) rotate(-80.78)"/>
  <circle class="st4" cx="956.17" cy="775.77" r="16.81" transform="translate(-268.5 903.33) rotate(-45)"/>
  <circle class="st4" cx="506.67" cy="1223.78" r="16.81" transform="translate(-786.56 1509.98) rotate(-79.99)"/>
  <path class="st4" d="M1722.21,1306.34c-21.41,140.67-171.02,88.3-171.02,88.3-110.02,47.68-267.46-11.2-315.15-121.22-47.68-110.02,10.96-258.83,120.99-306.51,110.02-47.68,397.59,126.44,365.18,339.44Z"/>
  <path class="st4" d="M1380.96,520.82c-11.3,4.96-23.77,7.77-36.92,7.77-50.47,0-91.39-40.62-91.39-90.72,0-21.15,7.35-40.56,19.58-55.99-49.35-60.02-86.22-99.21-102.37-106.08-28.75-12.23-195.53-34.63-235.58,4.1-.03.02-.04.07-.07.1,4.12-2.72,7.74-4.2,10.76-4.2,46.4,0,228.78,326.28,404.06,675.81,5.33,10.63,7.98,15.29,7.98,15.29,110.02-47.68,397.59,126.44,365.18,339.44-17.77,116.77-123.81,100.53-159.35,91.64,88.03,193.77,149.2,345.44,149.2,382.35,0,8.82-8.01,16.87-22.8,24.18h0c94.68-26.22,267.19-334.06,267.19-378.91,0-85.33-340.01-592.88-575.48-904.78Z"/>
  <circle class="st4" cx="1357.02" cy="1592.51" r="78.23" transform="translate(-431.45 2678.33) rotate(-80.83)"/>
  <path class="st2" d="M1382.87,1518.75c16.15,14.33,26.39,35.18,26.39,58.48,0,43.2-35.02,78.23-78.23,78.23-9.07,0-17.74-1.62-25.85-4.46,13.81,12.25,31.93,19.75,51.84,19.75,43.2,0,78.23-35.02,78.23-78.23,0-34.13-21.9-63.08-52.38-73.77Z"/>
  <circle class="st4" cx="1145.91" cy="839.48" r="98.87" transform="translate(-257.98 1056.16) rotate(-45)"/>
  <path class="st2" d="M1178.57,746.25c20.42,18.11,33.35,44.47,33.35,73.91,0,54.6-44.26,98.87-98.87,98.87-11.46,0-22.43-2.05-32.67-5.64,17.45,15.48,40.35,24.96,65.52,24.96,54.6,0,98.87-44.26,98.87-98.87,0-43.14-27.68-79.73-66.2-93.23Z"/>
  <circle class="st3" cx="1435.25" cy="792.58" r="51.97" transform="translate(-194.05 609.58) rotate(-22.5)"/>
  <path class="st1" d="M1452.42,743.57c10.73,9.52,17.53,23.38,17.53,38.85,0,28.7-23.27,51.97-51.97,51.97-6.03,0-11.79-1.08-17.17-2.96,9.17,8.14,21.21,13.12,34.44,13.12,28.7,0,51.97-23.27,51.97-51.97,0-22.68-14.55-41.91-34.8-49.01Z"/>
  <circle class="st3" cx="1751.21" cy="1557.35" r="85.37" transform="translate(-465.99 798.34) rotate(-22.75)"/>
  <path class="st1" d="M1779.41,1476.85c17.63,15.64,28.8,38.4,28.8,63.81,0,47.15-38.22,85.37-85.37,85.37-9.9,0-19.36-1.77-28.2-4.87,15.07,13.37,34.84,21.56,56.57,21.56,47.15,0,85.37-38.22,85.37-85.37,0-37.25-23.9-68.84-57.16-80.5Z"/>
  <path class="st3" d="M1304.04,639.93c0,13.94-11.3,25.25-25.25,25.25s-25.25-11.3-25.25-25.25,11.3-25.25,25.25-25.25,25.25,11.3,25.25,25.25Z"/>
  <path class="st1" d="M1287.14,616.12c5.21,4.62,8.52,11.36,8.52,18.87,0,13.94-11.3,25.24-25.25,25.24-2.93,0-5.73-.52-8.34-1.44,4.46,3.95,10.3,6.37,16.73,6.37,13.94,0,25.25-11.3,25.25-25.25,0-11.02-7.07-20.36-16.91-23.81Z"/>
  <path class="st3" d="M1836.58,1306.34c0,13.94-11.3,25.25-25.25,25.25s-25.25-11.3-25.25-25.25,11.3-25.25,25.25-25.25,25.25,11.3,25.25,25.25Z"/>
  <path class="st1" d="M1819.67,1282.54c5.21,4.62,8.52,11.35,8.52,18.87,0,13.94-11.3,25.24-25.25,25.24-2.93,0-5.73-.52-8.34-1.44,4.46,3.95,10.3,6.37,16.73,6.37,13.94,0,25.25-11.3,25.25-25.25,0-11.02-7.07-20.36-16.9-23.81Z"/>
  <circle class="st3" cx="1155.33" cy="390.08" r="53.91" transform="translate(21.65 839.22) rotate(-40.27)"/>
  <path class="st1" d="M1173.14,339.25c11.13,9.88,18.18,24.25,18.18,40.3,0,29.77-24.13,53.9-53.9,53.9-6.25,0-12.23-1.12-17.81-3.07,9.52,8.44,22,13.61,35.72,13.61,29.77,0,53.91-24.13,53.91-53.9,0-23.52-15.09-43.47-36.1-50.83Z"/>
  <circle class="st4" cx="956.18" cy="550.51" r="62.69" transform="translate(238.24 1388.3) rotate(-79.34)"/>
  <path class="st2" d="M976.89,491.4c12.94,11.48,21.15,28.2,21.15,46.86,0,34.62-28.07,62.69-62.69,62.69-7.27,0-14.22-1.3-20.71-3.58,11.07,9.82,25.58,15.83,41.54,15.83,34.62,0,62.69-28.07,62.69-62.69,0-27.35-17.55-50.55-41.98-59.11Z"/>
  <circle class="st4" cx="1179.99" cy="1350.49" r="44.15" transform="translate(-325.37 375.76) rotate(-15.93)"/>
  <circle class="st4" cx="734.46" cy="1285.7" r="141.43" transform="translate(-694.01 895.91) rotate(-45)"/>
  <path class="st2" d="M821.21,1174.16c12.45,21.06,19.72,45.54,19.72,71.78,0,78.11-63.32,141.43-141.43,141.43-32.73,0-62.78-11.23-86.75-29.9,24.61,41.64,69.83,69.65,121.7,69.65,78.11,0,141.43-63.32,141.43-141.43,0-45.37-21.45-85.65-54.68-111.53Z"/>
  <circle class="st4" cx="468.43" cy="1621.32" r="107.03" transform="translate(-1009.24 806.1) rotate(-45)"/>
  <path class="st2" d="M533.27,1536.31c8.36,15.25,13.13,32.75,13.13,51.37,0,59.11-47.92,107.03-107.03,107.03-24.41,0-46.84-8.26-64.85-22.02,18.18,33.16,53.41,55.66,93.9,55.66,59.11,0,107.03-47.92,107.03-107.03,0-34.7-16.59-65.45-42.18-85.01Z"/>
  <path class="st4" d="M830.03,1590.74c0,16.89-13.69,30.58-30.58,30.58s-30.58-13.69-30.58-30.58,13.69-30.58,30.58-30.58,30.58,13.69,30.58,30.58Z"/>
  <circle class="st4" cx="1040.27" cy="1670.74" r="146.78" transform="translate(-876.7 1224.93) rotate(-45)"/>
  <path class="st2" d="M1138.45,1561.84c11.48,20.92,18.03,44.93,18.03,70.49,0,81.06-65.72,146.78-146.78,146.78-37.8,0-72.15-14.41-98.17-37.89,24.94,45.46,73.24,76.3,128.75,76.3,81.07,0,146.78-65.72,146.78-146.78,0-43.26-18.83-82.03-48.61-108.9Z"/>
  <path class="st3" d="M1722.21,1306.34c-21.41,140.67-171.02,88.3-171.02,88.3-79.16-189.21-194.16-427.74-194.16-427.74,110.02-47.68,397.59,126.44,365.18,339.44Z"/>
</svg>